<?xml version="1.0" encoding="utf-8"?>
<svg width="800px" height="600px"
     xmlns="http://www.w3.org/2000/svg"
     xmlns:xhtml="http://www.w3.org/1999/xhtml"
     xmlns:xlink="http://www.w3.org/1999/xlink"
     xmlns:a="http://www.adobe.com/svg10-extensions" a:timeline="independent"
     
     xmlns:dc="http://purl.org/dc/elements/1.1/"
	 xmlns:cc="http://creativecommons.org/ns#"
	 xmlns:rdf="http://www.w3.org/1999/02/22-rdf-syntax-ns#"
	 xmlns:svg="http://www.w3.org/2000/svg"
     xmlns:sodipodi="http://sodipodi.sourceforge.net/DTD/sodipodi-0.dtd"
	 xmlns:inkscape="http://www.inkscape.org/namespaces/inkscape"
     >
     <!-- onload="top.load(evt)" -->

  <defs>
  	<clipPath id="effect_clip">
		<rect x="200" y="200" width="0" height="0">
			<animate id="effect" attributeName="x" attributeType="XML"
					 values="400;0"
					 begin="normalMode.click;zoomMode.click" dur="1s" fill="freeze"/>
			<animate attributeName="y" attributeType="XML"
					 values="300;0"
					 begin="effect.begin" dur="1s" fill="freeze"/>
			<animate attributeName="width" attributeType="XML"
					 values="0;800"
					 begin="effect.begin" dur="1s" fill="freeze"/>
			<animate attributeName="height" attributeType="XML"
					 values="0;600"
					 begin="effect.begin" dur="1s" fill="freeze"/>
		</rect>
    </clipPath>
    <!--
	<clipPath id="restart_clip">
		<rect x="200" y="200" width="0" height="0">
			<animate id="effect2" attributeName="x" attributeType="XML"
					 values="0;400"
					 begin="startAgainButton.click" dur="10s" fill="freeze"/>
			<animate attributeName="y" attributeType="XML"
					 values="0;300"
					 begin="effect2.begin" dur="10s" fill="freeze"/>
			<animate attributeName="width" attributeType="XML"
					 values="800;0"
					 begin="effect2.begin" dur="10s" fill="freeze"/>
			<animate attributeName="height" attributeType="XML"
					 values="600;0"
					 begin="effect2.begin" dur="10s" fill="freeze"/>
		</rect>
    </clipPath>
    -->
    <clipPath id="gameareaclip">
      <rect x="20" y="20" width="600" height="560"/>
    </clipPath>
    <pattern id="background_pattern" x="0" y="0" width="20" height="20" patternUnits="userSpaceOnUse">
      <rect width="20" height="20" style="fill:yellow"/>
      <circle cx="10" cy="10" r="8" style="fill:lightyellow"/>
    </pattern>
    <radialGradient id="player_color">
      <stop offset="0.0" style="stop-color:yellow;stop-opacity:1"/>
      <stop offset="0.8" style="stop-color:yellow;stop-opacity:1"/>
      <stop offset="1.0" style="stop-color:orange;stop-opacity:1"/>
    </radialGradient>
    
    <!-- platform pattern --> 
	<pattern id="platformPattern" x="0" y="0" width="20" height="20" patternUnits="userSpaceOnUse">
	    <!--
	    <g transform="scale(0.5)">
		<rect width='56' height='100' fill='#d8b203'/>
		<path d='M28 66L0 50L0 16L28 0L56 16L56 50L28 66L28 100' fill='none' stroke='#fff629' stroke-width='2'/>
		<path d='M28 0L28 34L0 50L0 84L28 100L56 84L56 50L28 34' fill='none' stroke='#ffe503' stroke-width='2'/>
		</g>-->
		<rect width='40' height='40' fill='#8a3'/>
		<circle r='9.2' stroke-width='1' stroke='#613' fill='none'/>
		<circle cy='18.4' r='9.2' stroke-width='1px' stroke='#613' fill='none'/>
		<circle cx='18.4' cy='18.4' r='9.2' stroke-width='1' stroke='#613' fill='none'/>
	</pattern>
	<pattern id="backgroundPattern" x="0" y="0" width="15" height="15" patternUnits="userSpaceOnUse">
		<rect width='50' height='50' fill='#282828'/>
		<circle cx='3' cy='4.3' r='1.8' fill='#595959'/>
		<circle cx='3' cy='3' r='1.8' fill='black'/>
		<circle cx='10.5' cy='12.5' r='1.8' fill='#595959'/>
		<circle cx='10.5' cy='11.3' r='1.8' fill='black'/>
	</pattern>
	<pattern id="dpPattern" x="0" y="0" width="20" height="20" patternUnits="userSpaceOnUse">
		<rect width='20' height='20' fill='#fff'/>
		<rect width='10' height='10' fill='#ccc'/>
		<rect x='10' y='10' width='10' height='10' fill='#ccc'/>-->
	</pattern>
	<!-- star -->
	<g id="starDef" transform="scale(0.27)">
		<path fill="#646464" fill-opacity="0.21509" fill-rule="evenodd" stroke="#54514f" stroke-width="1.25922" stroke-miterlimit="4" stroke-dashoffset="0" stroke-opacity="0.2" id="path3551" d="m114.35,148.621c-8.4907,4.97008 -33.32025,-28.29104 -43.0931,-29.36963c-9.77287,-1.07855 -40.64019,26.03554 -47.96229,19.32027c-7.32213,-6.71523 15.92615,-40.81684 13.85155,-50.60378c-2.07457,-9.78688 -37.14616,-31.46213 -33.18076,-40.58245c3.96535,-9.12028 43.16312,3.06484 51.65381,-1.90524c8.4907,-4.97004 17.68258,-45.48017 27.45543,-44.40158c9.77286,1.07859 10.75016,42.71103 18.07228,49.42628c7.32213,6.71523 48.07461,3.35386 50.14916,13.14077c2.07458,9.78689 -36.51917,23.33204 -40.48455,32.45235c-3.96537,9.12031 12.02917,47.55299 3.53847,52.52302z"/>
		<path fill="#6685d1" fill-rule="evenodd" stroke="#000084" stroke-width="1.25922" stroke-miterlimit="4" stroke-dashoffset="0" id="path1061" d="m112.80448,143.51566c-8.13444,4.66002 -31.92217,-26.52604 -41.28497,-27.53734c-9.36281,-1.01127 -38.93496,24.41124 -45.94983,18.11493c-7.0149,-6.2963 15.2579,-38.2704 13.27036,-47.44675c-1.98754,-9.1763 -35.58755,-29.4993 -31.78854,-38.05063c3.79897,-8.55128 41.35204,2.87365 49.48647,-1.78637c8.13445,-4.65997 16.94064,-42.64279 26.30342,-41.63149c9.36279,1.0113 10.2991,40.04641 17.31398,46.34272c7.0149,6.29627 46.05746,3.14462 48.04498,12.32095c1.98752,9.1763 -34.98687,21.8764 -38.78587,30.42772c-3.79898,8.55132 11.52445,44.58629 3.39,49.24626z"/>
		<path fill="#ffffff" fill-opacity="0.69434" fill-rule="evenodd" stroke-width="0.53919" stroke-miterlimit="4" stroke-dashoffset="0" id="path1685" d="m81.82627,7.74229c-8.38644,-0.90584 -17.84378,38.32208 -25.12995,42.49613c-7.28616,4.17403 -43.51756,-8.13844 -46.92038,-0.47888c-3.40283,7.65957 29.28453,27.94888 31.0648,36.16827c1.78027,8.21941 -18.68115,39.46329 -12.39779,45.10302c0.73298,0.65788 -6.05158,0.38518 1.4153,0.35251c-5.41035,-13.46914 14.50614,-36.28519 12.86478,-43.86327c-1.78027,-8.21939 -33.44113,-29.02909 -30.0383,-36.68866c3.40283,-7.65958 37.56693,5.18761 44.85309,1.01358c7.12488,-4.08165 14.81717,-38.70699 22.99634,-39.30218c-0.98648,-1.54417 2.59359,-4.65995 1.29211,-4.80052zm19.12353,47.26523c0.27659,0.39607 0.55861,0.77536 0.85861,1.04464c5.04247,4.52593 28.52457,3.62024 38.53711,7.32676c-4.02913,-6.07491 -29.39288,-5.00162 -39.39572,-8.3714zm-24.30519,60.72822c7.51743,5.65691 17.64246,16.56301 24.71355,20.27743c-8.10342,-5.96786 -18.31757,-17.06487 -24.71355,-20.27743z"/>
    </g>
    
      <g id="monster" transform="scale(0.3)translate(-243.09059,-186.02332)">
    <g
       id="g3362"
       transform="translate(151.36055,89.545853)">
      <path
         id="path5133"
         d="M 139.29123,205.27168 C 137.92784,208.4719 137.65987,212.29217 134.84273,214.69926 C 132.67305,216.19876 130.53088,220.48561 127.74358,218.16333 C 123.15349,215.85358 117.16222,215.94887 113.30448,219.65064 C 110.64218,221.21832 110.16359,223.63991 112.46514,225.7789 C 114.95921,229.66733 120.04982,231.23208 124.36835,229.75139 C 125.84985,229.57509 129.16696,227.23049 126.92719,230.01009 C 124.47286,234.03374 122.44893,239.40591 125.21049,243.80188 C 126.66717,246.95607 130.62907,243.94729 133.06736,243.3101 C 138.66996,240.76643 142.76589,235.92466 146.08104,230.88775 C 148.76643,234.65351 153.58046,237.26176 158.23325,235.75107 C 161.6433,234.83965 164.6544,232.93861 167.68496,231.19638 C 167.3327,225.60004 164.48419,219.43953 158.75537,217.69342 C 156.54531,216.41493 152.3169,217.54239 151.15276,216.46479 C 151.93121,213.351 152.70965,210.23722 153.4881,207.12344"
         style="fill:#55d400;fill-rule:evenodd;stroke:#000000;stroke-width:2.16039205;stroke-linecap:butt;stroke-linejoin:miter;stroke-miterlimit:4;stroke-dasharray:none;stroke-opacity:1" />
      <path
         id="path3143"
         d="M 202.18368,155.86903 C 202.32476,172.13152 194.04264,187.70331 181.74945,197.07893 C 163.63158,211.30668 137.66258,212.59031 118.23285,200.5951 C 104.60712,192.41906 94.35992,177.39451 92.931507,160.60665 C 91.404826,145.35128 97.353616,129.77863 107.83416,119.38315 C 121.55939,105.37157 142.05682,100.06203 160.46571,104.48471 C 177.3748,108.36047 192.79378,120.88849 199.08724,138.29853 C 201.13029,143.88423 202.18862,149.87418 202.18368,155.86903 z "
         style="fill:#55d400;fill-opacity:1;stroke:#000000;stroke-width:1.92879772;stroke-miterlimit:4;stroke-dasharray:none;stroke-opacity:1" />
      <path
         id="path5083"
         d="M 144.06253,133.64786 C 144.26165,141.45603 136.84386,148.14009 129.13545,147.518 C 121.41399,147.36706 114.72278,139.96509 115.74214,132.22852 C 116.38069,124.17813 124.93573,118.22499 132.72567,120.04195 C 139.08594,121.21233 144.17068,127.12597 144.06253,133.64786 z "
         style="fill:#ffffff;fill-opacity:1;stroke:#000000;stroke-width:2.16039205;stroke-miterlimit:4;stroke-dasharray:none;stroke-opacity:1" />
      <path
         id="path5085"
         d="M 194.67743,117.90786 C 194.84657,127.56554 187.04829,136.22208 177.67214,137.8632 C 167.86857,139.98556 156.88767,134.42794 153.37972,124.90922 C 150.04305,116.65371 153.3394,106.56956 160.64343,101.58683 C 169.23179,95.228633 182.41322,96.520254 189.48247,104.57995 C 192.7774,108.18611 194.70218,113.01309 194.67743,117.90786 z "
         style="fill:#ffffff;fill-opacity:1;stroke:#000000;stroke-width:2.16039205;stroke-miterlimit:4;stroke-dasharray:none;stroke-opacity:1" />
      <path
         id="path5087"
         d="M 102.45078,158.75259 C 109.93994,175.43313 123.74856,189.7883 141.34294,195.59352 C 157.38403,201.13134 176.26297,198.82649 189.75664,188.25271 C 202.06565,178.88832 208.7453,163.65894 209.94415,148.49016 C 211.46113,143.97148 205.35379,145.83202 202.81685,145.15938 C 181.99905,144.23665 161.1937,146.76646 140.69587,150.19845 C 127.82339,152.4424 115.02511,155.18563 102.45078,158.75259 z "
         style="fill:#ffffff;fill-rule:evenodd;stroke:#000000;stroke-width:2.16039205;stroke-linecap:butt;stroke-linejoin:miter;stroke-miterlimit:4;stroke-dasharray:none;stroke-opacity:1" />
      <path
         id="path5131"
         d="M 163.73951,197.76243 C 162.8647,189.25866 161.77164,180.41659 164.14544,172.05615 C 165.01728,168.68887 168.05998,165.44324 171.82796,166.24579 C 177.87101,167.4675 182.50057,172.03345 186.79,176.16124 C 189.45009,178.98011 192.26611,181.87355 194.25975,185.14916 C 185.88773,192.68376 174.97259,197.12671 163.73951,197.76243 z "
         style="fill:#ffff00;fill-rule:evenodd;stroke:#000000;stroke-width:2.16039205;stroke-linecap:butt;stroke-linejoin:miter;stroke-miterlimit:4;stroke-dasharray:none;stroke-opacity:1" />
      <path
         id="path5089"
         d="M 134.8037,128.40121 C 134.88606,132.64805 128.61165,130.37839 130.85204,127.02106 C 131.97651,124.90781 134.99206,126.21237 134.8037,128.40121 z "
         style="fill:#ffffff;fill-opacity:1;stroke:#000000;stroke-width:2.16039205;stroke-miterlimit:4;stroke-dasharray:none;stroke-opacity:1" />
      <path
         id="path5091"
         d="M 181.71508,107.7849 C 181.72149,112.0133 174.82404,109.92275 177.1989,106.40475 C 178.4837,104.39132 181.77487,105.39607 181.71508,107.7849 z "
         style="fill:#ffffff;fill-opacity:1;stroke:#000000;stroke-width:2.16039205;stroke-miterlimit:4;stroke-dasharray:none;stroke-opacity:1" />
      <path
         id="path5093"
         d="M 130.58157,152.55985 C 131.94489,157.28954 133.1739,162.44053 136.73309,166.04659 C 139.79997,169.01207 143.79021,165.67793 145.51543,162.90407 C 148.72637,158.59268 150.47804,153.42715 153.07429,148.78922 L 153.18509,148.83735 L 153.2227,149.15596"
         style="fill:#ffff00;fill-rule:evenodd;stroke:#000000;stroke-width:2.16039205;stroke-linecap:butt;stroke-linejoin:miter;stroke-miterlimit:4;stroke-dasharray:none;stroke-opacity:1" />
    </g>
  </g>
    
    
    <!-- monster 
    <g id="monster" transform="scale(0.09)">
     
	   <path d="m243.031006,38.672901c-41.572006,0.996498 -82.832001,20.251198 -112.774002,55.874401c-30.633507,35.41069 -47.552101,87.50769 -43.129601,139.009705c4.1362,56.652985 33.5336,107.126984 73.497597,135.074005c56.796005,40.863983 133.144989,36.345001 185.981995,-12.011017c36,-31.997009 59.654999,-84.195007 59.246002,-139.091995c0.01001,-20.169006 -3.036987,-40.274002 -8.949005,-59.113007c-18.220001,-58.739792 -62.800995,-101.271893 -112.608002,-114.576893c-13.520996,-3.785599 -27.40799,-5.497501 -41.264984,-5.165199zm0.373001,14.019798c12.481995,-0.285801 24.977982,1.232201 37.120987,4.632301l0.041992,0.041l0.041016,0c44.484985,11.883099 85.914001,50.743 102.790009,105.148998l0,0.041c5.475983,17.449997 8.339996,36.237 8.326996,55.013l0,0.041c0.377991,50.792007 -22.093994,99.705002 -54.647003,128.638992l-0.041016,0.041016l-0.041992,0.040985c-48.195984,44.108002 -116.571991,47.994995 -168.125,10.903992l-0.041,-0.040985l-0.041992,0c-36.018997,-25.187988 -63.744003,-72.295013 -67.573006,-124.744003l0,-0.041l0,-0.041c-4.091095,-47.640991 12.087006,-96.653992 39.896996,-128.801994l0.042007,-0.041l0,-0.041c27.460999,-32.6716 64.802002,-49.934002 102.251007,-50.791302z" stroke-width="10.683" stroke-miterlimit="4" fill="#000000" id="path3627"/>
	   <path d="m395.041992,220.380005c0.384003,52.066986 -22.141998,101.923004 -55.576996,131.940002c-49.277008,45.552002 -119.90799,49.661987 -172.752991,11.257996c-37.059006,-26.177002 -64.929008,-74.281006 -68.814102,-128.029007c-4.152306,-48.843002 12.0271,-98.700989 40.532089,-131.983994c37.330002,-44.859901 93.07901,-61.859303 143.147003,-47.699402c45.98999,12.408798 87.925995,52.519402 105.042999,108.260406c5.557007,17.882996 8.434998,37.060989 8.421997,56.253998z" stroke-width="10.683" stroke-miterlimit="4" fill="#00007f" id="path3143"/>
	   <path d="m234.604004,174.143005c0.571991,22.409988 -20.730011,41.592987 -42.865997,39.807999c-22.173004,-0.434006 -41.388,-21.678009 -38.461014,-43.882004c1.834,-23.104004 26.401001,-40.190002 48.771011,-34.975006c18.264999,3.359009 32.865997,20.331009 32.556,39.049011z" stroke-width="4.79717" stroke-miterlimit="4" stroke="#000000" fill="#ffffff" id="path5083"/>
	   <path d="m379.953003,128.968994c0.484985,27.718002 -21.908997,52.562012 -48.834015,57.272003c-28.151978,6.091003 -59.685974,-9.858994 -69.759003,-37.177994c-9.581985,-23.694 -0.115997,-52.635406 20.858002,-66.936005c24.663025,-18.248199 62.516022,-14.541199 82.81601,8.590302c9.462006,10.349701 14.98999,24.203697 14.919006,38.251694z" stroke-width="4.79717" stroke-miterlimit="4" stroke="#000000" fill="#ffffff" id="path5085"/>
	   <path d="m166.981003,275.618988c23.912994,55.057007 66.987,80.627014 125.564987,75.686005c67.675995,-14.544006 88.554016,-89.063995 67.863007,-143.692993c-65.326996,0.688004 -151.589996,11.947998 -193.427994,68.006989z" stroke-width="10.097" stroke-miterlimit="4" stroke="#000000" fill-rule="evenodd" fill="#aad4ff" id="path5087"/>
	   <path d="m321.368011,366.588013c4.238983,7.009979 8.936981,13.786987 16.546997,16.817993c7.609985,3.029999 13.957001,10.391998 20.143005,3.434998c8.766998,-9.856995 24.248993,-12.052002 36.93399,-6.776001c7.332001,3.049011 9.583984,7.115997 6.535004,14.56601c-4.481018,10.948975 -14.908997,18.384979 -26.671021,18.459991c-3.842987,0.023987 -13.319977,-3.302002 -6.164978,2.493988c9.442993,7.649994 17.269989,19.876007 14.279999,32.907013c-2,8.720001 -13.393005,5.070007 -19.865997,4.473999c-15.803009,-1.455994 -29.446014,-11.261993 -41.337006,-21.333008c-3.932007,11.27002 -13.98999,20.936005 -26.640991,20.845001c-9.129028,-0.06601 -22.172028,1.80899 -26.778015,-4.432007c-7.373993,-9.990997 0.082001,-30.619995 12.364014,-39.903992c5.233978,-3.955994 18.675995,-5.023987 17.985992,-8.549988c-1.397003,-7.132019 -10.744019,-20.161011 -14.938019,-27.307007" stroke-width="4.79717" stroke-miterlimit="4" stroke="#000000" fill-rule="evenodd" fill="#00007f" id="path2802"/>
	   <path d="m186.929001,170.164993c-4.300003,31.021011 -27.382004,10.647003 -14.591003,-12.472c6.888,-14.725998 17.748001,-3.375992 14.591003,12.472z" stroke-width="4.79717" stroke-miterlimit="4" fill="#000000" id="path5089"/>
	   <path d="m345.860992,124.539001c17.789001,55.097 -47.035004,40.074997 -42.490997,-9.984001c1.996002,-28.517998 32.957001,-21.255898 42.490997,9.984001z" stroke-width="4.79717" stroke-miterlimit="4" fill="#000000" id="path5091"/>
	   <path d="m169.487,365.307007c-5.013992,12.441986 -16.591995,38.781982 -33.875,32.959991c-12.417999,-7.791992 -29.598,-5.31601 -41.464401,4.269012c-6.857101,5.537994 -7.985199,10.584991 -2.410301,17.587982c8.196503,10.296021 21.6287,14.985016 34.181702,11.401001c4.103004,-1.17099 13.780006,-7.234985 7.348,0.742004c-7.047997,11.548004 -12.185997,26.60199 -4.929001,39.583008c4.856003,8.687988 15.852005,1.240997 22.561996,-1.411011c16.381012,-6.47699 27.851013,-21.196991 37.371002,-35.652985c7.710999,10.807983 21.447006,17.996002 34.897003,13.957977c9.703995,-2.912994 24.188995,-4.983978 27.141998,-13.071991c4.738007,-12.973999 -9.658997,-32.667999 -25.64299,-38.753998c-6.814011,-2.593994 -21.466003,0.453003 -21.832001,-3.526001c-0.741013,-8.049988 7.084,-22.442993 9.319,-31.378998" stroke-width="4.79717" stroke-miterlimit="4" stroke="#000000" fill-rule="evenodd" fill="#00007f" id="path5133"/>
	   <path d="m286.307007,53.258202c-17.52301,11.443497 -30.237,30.638 -35.81601,51.221802c9.437988,-15.191803 22.671997,-29.189903 38.541992,-39.553505c17.289001,-11.290398 34.822998,-16.4007 49.937012,-15.731098c-14.847015,-8.665699 -34.292999,-7.9338 -52.662994,4.062801z" stroke-width="21.5873" stroke-miterlimit="4" fill="#000000" id="path2808"/>
	   <path d="m190.815994,103.795998c19.992004,5.166 35.792007,21.156006 44.174011,41.838997c-11.84201,-12.929001 -27.578003,-22.849991 -45.682999,-27.527992c-19.725006,-5.098 -38.974014,-3.140999 -54.962006,4.248001c14.751999,-16.259003 35.511993,-23.975006 56.470993,-18.559006z" stroke-width="21.5873" stroke-miterlimit="4" fill="#000000" id="path2813"/>
	   <path d="m140.199997,441.437012c-5.970993,3.869995 -9.106995,21.35498 -4.972,24.209991c4.37001,3.015991 18.89801,-6.196991 29.180008,-14.15799c4.644989,-3.597015 -14.434998,-16.386017 -24.208008,-10.052002z" stroke-width="4.797" stroke-miterlimit="4" stroke="#000000" fill-rule="evenodd" fill="#007fff" id="path2815"/>
	   <path d="m123.622002,403.605011c-5.072998,-2.406006 -24.152405,2.078979 -26.519203,5.803986c-2.500801,3.934998 9.625198,9.863007 19.738205,13.522003c4.567993,1.653015 15.084,-15.390015 6.780998,-19.325989z" stroke-width="4.797" stroke-miterlimit="4" stroke="#000000" fill-rule="evenodd" fill="#007fff" id="path3198"/>
	   <path d="m243.940994,428.954987c-0.453995,-6.503998 -12.151993,-22.898987 -15.942001,-23.042999c-4.003998,-0.151978 -3.050995,15.502014 -1.306992,27.792023c0.787003,5.550995 17.992004,5.895996 17.248993,-4.749023z" stroke-width="4.797" stroke-miterlimit="4" stroke="#000000" fill-rule="evenodd" fill="#007fff" id="path3200"/>
	   <path d="m367.123993,425.666992c5.869995,2.429016 11.328003,17.002014 8.114014,20.080994c-3.395996,3.255005 -17.64502,-2.481995 -27.951996,-7.780975c-4.656006,-2.394012 10.231995,-16.277008 19.837982,-12.300018z" stroke-width="4.797" stroke-miterlimit="4" stroke="#000000" fill-rule="evenodd" fill="#007fff" id="path3202"/>
	   <path d="m369.901001,390.98999c3.696991,-3.356995 21.213989,-4.720001 24.233002,-2.251984c3.190002,2.608002 -5.597992,10.779999 -13.270996,16.527008c-3.466003,2.595978 -17.011993,-8.782013 -10.962006,-14.275024z" stroke-width="4.797" stroke-miterlimit="4" stroke="#000000" fill-rule="evenodd" fill="#007fff" id="path3204"/>
	   <path d="m273.72699,439.44101c-0.700989,-5.653015 6.822998,-21.662018 10.13501,-22.417999c3.5,-0.798004 5.309998,12.785004 5.855988,23.61499c0.246002,4.891998 -14.842987,8.056 -15.990997,-1.196991z" stroke-width="4.797" stroke-miterlimit="4" stroke="#000000" fill-rule="evenodd" fill="#007fff" id="path3206"/>
	   <path d="m272.634003,346.893005c4.471008,-23.235992 11.21701,-33.627991 15.559998,-61.304016c30.260986,25.320007 33.997009,27.800018 50.838013,34.890015c-18.973999,16.740997 -40.940002,27.553009 -66.39801,26.414001z" stroke-width="4.79717" stroke-miterlimit="4" stroke="#000000" fill-rule="evenodd" fill="#ffffff" id="path5131"/>
	   <path d="m190.052994,258.368988c22.920013,14.098022 30.367004,35.009003 46.638,48.605011c-2.315994,-1.447998 0.838013,-67.839996 14.555008,-79.268997c-27.464996,5.957001 -41.921005,15.604004 -61.193008,30.663986z" stroke-width="4.797" stroke-miterlimit="4" stroke="#000000" fill-rule="evenodd" fill="#ffffff" id="path5093"/>
	   <path d="m272.791992,51.4977c-3.186005,-13.1465 -12.162994,-35.2561 -28.437988,-49.09911c7.705002,44.729309 -15.149002,70.277412 -12.237,86.189011" stroke-width="4.79717" stroke-miterlimit="4" stroke="#000000" fill-rule="evenodd" fill="#00007f" id="path3633"/>
	   <path d="m160.533997,80.563301c-2.858994,-13.221603 -8.33699,-100.196001 4.212006,-56.575802c12.548996,43.620197 44.252991,56.675304 48.563004,72.266705" stroke-width="4.79717" stroke-miterlimit="4" stroke="#000000" fill-rule="evenodd" fill="#00007f" id="path3635"/>
	   <path d="m344.856995,214.757004c-11.350006,24.388992 -6.031006,45.939011 -12.109009,66.245987c1.134003,-2.483978 -38.112976,-56.141998 -55.860992,-58.122986c26.201019,-10.159012 43.584015,-10.072998 67.970001,-8.123001z" stroke-width="4.797" stroke-miterlimit="4" stroke="#000000" fill-rule="evenodd" fill="#ffffff" id="path3637"/>
	   <path d="m2.39858,306.125c11.24422,-7.631989 24.013119,-19.446014 23.149319,-51.498001c7.347799,27.397995 23.618101,44.664993 33.974199,55.168015c-17.947899,-4.51001 -19.540497,3.238983 -23.3055,9.359985c-20.217098,34.282013 40.650398,28.649994 100.919403,23.312012l24.940994,23.541992c-111.170795,3.048004 -152.839756,-14.13501 -137.176296,-48.007996c-1.9006,-14.218994 -13.8256,-10.071014 -22.50212,-11.876007z" stroke-width="4.79717" stroke-miterlimit="8.3" stroke="#000000" fill-rule="evenodd" fill="#00007f" id="path3639"/>
	   <animate attributeName="width" attributeType="XML"
					 values="40;60;40"
					 dur="1s" repeatCount="indefinite"/>
	</g>
	-->
    <!-- 
	<g id="monster">
	  <path d="M0,30 q0,-30 20,-30 t20,30 l0,10 
			   l-5,-7 l-5,7 l-5,-7 l-5,7 l-5,-7 l-5,7 l-5,-7 l-5,7 l0,-10"
			style="fill:gray;fill-opacity:0.5;stroke:black;stroke-width:2"/>
	  <circle cx="12" cy="20" r="5"
			  style="fill:yellow;stroke:black;stroke-width:2">
		<animateColor attributeName="fill" values="yellow;red;yellow"
					  dur="1s" repeatCount="indefinite"/>
	  </circle>
	  <circle cx="28" cy="20" r="5"
			  style="fill:yellow;stroke:black;stroke-width:2">
		<animateColor attributeName="fill" values="yellow;red;yellow"
					  dur="1s" repeatCount="indefinite"/>
	  </circle>
	</g>
	-->
	
	<g id="bullet">
	  <circle cx="5" cy="5" r="5" style="fill:red"/>
	  <circle cx="6" cy="3" r="1" style="fill:pink"/>
	</g>
	
	<!-- candy -->
	<g id="candy" transform="scale(0.3)">
	  <sodipodi:namedview
		 id="base"
		 pagecolor="#ffffff"
		 bordercolor="#666666"
		 borderopacity="1.0"
		 gridtolerance="10000"
		 guidetolerance="10"
		 objecttolerance="10"
		 inkscape:pageopacity="0.0"
		 inkscape:pageshadow="2"
		 inkscape:zoom="4.2109375"
		 inkscape:cx="64"
		 inkscape:cy="64"
		 inkscape:document-units="px"
		 inkscape:current-layer="layer1"
		 inkscape:window-width="1280"
		 inkscape:window-height="744"
		 inkscape:window-x="-4"
		 inkscape:window-y="-4"
		 showgrid="false"
		 borderlayer="true"
		 showguides="true"
		 inkscape:guide-bbox="true" />
	  <metadata
		 id="metadata7">
		<rdf:RDF>
		  <cc:Work
			 rdf:about="">
			<dc:format>image/svg+xml</dc:format>
			<dc:type
			   rdf:resource="http://purl.org/dc/dcmitype/StillImage" />
		  </cc:Work>
		</rdf:RDF>
	  </metadata>
	  <g
		 inkscape:label="Layer 1"
		 inkscape:groupmode="layer"
		 id="layer1"
		 transform="translate(-66.38047,-391.3222)">
		<path
		   sodipodi:nodetypes="cssscc"
		   id="path6298"
		   d="M 157.30201,429.82171 C 167.34894,440.81397 162.68878,461.44737 146.89991,475.8784 C 131.11102,490.30943 110.14282,493.10032 100.09591,482.10806 C 90.048982,471.1158 94.709128,450.48239 110.498,436.05136 C 126.21994,421.68152 147.07131,418.83995 157.18014,429.68963 L 157.30201,429.82171 z"
		   style="fill:#ffb600;fill-opacity:1;fill-rule:evenodd;stroke:#000000;stroke-width:5.16379451999999970;stroke-linecap:butt;stroke-linejoin:round;marker:none;marker-start:none;marker-mid:none;marker-end:none;stroke-miterlimit:4;stroke-dasharray:none;stroke-dashoffset:0;stroke-opacity:1;visibility:visible;display:inline;overflow:visible;enable-background:accumulate" />
		<path
		   style="fill:#ff0000;fill-rule:evenodd;stroke:none;stroke-width:1px;stroke-linecap:butt;stroke-linejoin:miter;stroke-opacity:1"
		   d="M 100.63084,448.65206 C 116.60274,454.50696 129.50572,464.82304 135.3921,485.33886 L 156.18399,463.83626 C 151.63592,445.40986 140.07498,433.79494 121.52898,428.96444 L 100.63084,448.65206 z"
		   id="path6296"
		   sodipodi:nodetypes="ccccc" />
		<path
		   style="fill:none;fill-opacity:1;fill-rule:evenodd;stroke:#000000;stroke-width:6;stroke-linecap:butt;stroke-linejoin:round;marker:none;marker-start:none;marker-mid:none;marker-end:none;stroke-miterlimit:4;stroke-dasharray:none;stroke-dashoffset:0;stroke-opacity:1;visibility:visible;display:inline;overflow:visible;enable-background:accumulate"
		   d="M 157.52376,429.78071 C 167.57068,440.77297 162.91053,461.40637 147.12166,475.8374 C 131.33276,490.26843 110.36457,493.05932 100.31766,482.06706 C 90.270731,471.0748 94.930877,450.44139 110.71975,436.01036 C 126.44169,421.64052 147.29306,418.79895 157.40189,429.64863 L 157.52376,429.78071 z"
		   id="path5784"
		   sodipodi:nodetypes="cssscc" />
		<path
		   style="fill:#ff0000;fill-opacity:1;fill-rule:evenodd;stroke:#000000;stroke-width:6;stroke-linecap:round;stroke-linejoin:round;stroke-miterlimit:4;stroke-dasharray:none;stroke-opacity:1"
		   d="M 158.24759,427.32368 C 168.25295,431.71772 183.40143,429.49745 188.45285,423.78831 C 185.87218,423.24654 183.43661,420.63509 181.93687,417.61843 C 180.36285,414.4523 181.79232,410.33026 179.11786,407.88264 C 176.06415,405.08792 171.81544,406.62271 168.57831,404.94371 C 165.72979,403.46627 164.81054,400.34568 161.85954,396.88274 C 154.78866,406.43682 155.40869,417.89005 158.24759,427.32368 z"
		   id="path6310"
		   sodipodi:nodetypes="ccssscc" />
		<path
		   sodipodi:nodetypes="ccssscc"
		   id="path6312"
		   d="M 102.02676,483.87353 C 92.048507,479.41827 76.886708,481.54569 71.800416,487.22378 C 74.377717,487.78135 76.797228,490.40766 78.278459,493.43346 C 79.83306,496.60917 78.378372,500.72238 81.037779,503.18634 C 84.074306,505.99972 88.332341,504.49099 91.559125,506.18979 C 94.398534,507.68465 95.29865,510.81081 98.228378,514.29176 C 105.35765,504.78119 104.8078,493.32438 102.02676,483.87353 z"
		   style="fill:#ff0000;fill-opacity:1;fill-rule:evenodd;stroke:#000000;stroke-width:6;stroke-linecap:round;stroke-linejoin:round;stroke-miterlimit:4;stroke-dasharray:none;stroke-opacity:1" />
	  </g>
	</g>
	
	<!-- player, bluefish -->
	<g id="bluefishDef" transform="scale(0.09)translate(437.5, 0)scale(-1, 1)">
	  <defs id="defs3">
		<linearGradient id="linearGradient590">
		  <stop id="stop591" offset="0" style="stop-color:#00dd62;stop-opacity:1;"/>
		  <stop id="stop592" offset="1" style="stop-color:#b5ffff;stop-opacity:1;"/>
		</linearGradient>
		<linearGradient id="linearGradient53">
		  <stop id="stop54" offset="0" style="stop-color:#faff00;stop-opacity:1;"/>
		  <stop id="stop55" offset="1" style="stop-color:#7aff00;stop-opacity:1;"/>
		</linearGradient>
		<linearGradient id="linearGradient48">
		  <stop id="stop49" offset="0" style="stop-color:#006aff;stop-opacity:1;"/>
		  <stop id="stop50" offset="1" style="stop-color:#b5ffff;stop-opacity:1;"/>
		</linearGradient>
		<linearGradient id="linearGradient51" x1="-1.94412308e-8" x2="1" xlink:href="#linearGradient48" y1="-1.20508599e-8" y2="-1.20508599e-8"/>
		<linearGradient id="linearGradient52" x1="5.9996248e-9" x2="1" xlink:href="#linearGradient590" y1="1.15848202e-7" y2="1.15848202e-7"/>
		<linearGradient id="linearGradient32" xlink:href="#linearGradient590"/>
		<linearGradient id="linearGradient33" x1="-1.87160197e-7" x2="1" xlink:href="#linearGradient48" y1="-3.69771413e-8" y2="-3.69771413e-8"/>
		<linearGradient id="linearGradient586" x1="-9.8390089e-8" x2="1" xlink:href="#linearGradient590" y1="1.26816005e-7" y2="1.26816005e-7"/>
		<linearGradient id="linearGradient591" x1="5.76364805e-8" x2="1" xlink:href="#linearGradient590" y1="1.12989397e-7" y2="1.12989397e-7"/>
		<linearGradient id="linearGradient597" x1="6.1834271e-9" x2="1" xlink:href="#linearGradient53" y1="-2.27927295e-8" y2="-2.27927295e-8"/>
		<linearGradient id="linearGradient598" x1="1.57258508e-8" x2="1" xlink:href="#linearGradient53" y1="3.42752293e-9" y2="3.42752293e-9"/>
	  </defs>
	  <path d="M 217.401 403.5472 C 272.4921 420.3576 324.6958 374.4836 346.3866 369.5977 C 324.6738 349.3913 321.2581 341.4703 313.2166 315.131 C 293.5589 340.4084 281.487 367.1787 217.401 403.5472 z " id="path636" style="font-size:12;fill:url(#linearGradient591);fill-opacity:1;fill-rule:evenodd;stroke:url(#linearGradient597);stroke-width:7.907099;stroke-linejoin:bevel;"/>
	  <path d="M 114.1712 31.60308 C 184.4662 10.41717 239.9417 34.19256 261.7619 45.56111 C 227.5028 54.51549 248.4295 123.3392 243.8365 125.994 C 224.7729 104.8361 186.3057 43.4601 114.1712 31.60308 z " id="path634" style="font-size:12;fill:url(#linearGradient52);fill-opacity:1;fill-rule:evenodd;stroke:url(#linearGradient598);stroke-width:7.907097;stroke-linejoin:bevel;"/>
	  <path d="M 9.650182 236.0956 C 7.84931 242.1687 15.48867 278.0697 25.72803 279.0211 C 37.7406 278.9202 31.65898 241.64 34.68657 242.2453 C 37.05257 241.681 47.9641 280.85 57.61099 280.1149 C 64.493 279.5993 63.38437 227.6067 65.69287 226.758 C 69.76507 225.715 83.59859 257.8181 89.5818 254.5067 C 100.7821 247.3754 101.5731 199.8332 102.2208 203.4608 C 104.438 205.9215 125.4934 225.4037 128.6245 227.817 C 130.2416 227.8913 134.5572 206.492 130.6161 194.8027 C 104.6335 169.5038 17.1081 226.4763 9.650182 236.0956 z " id="path581" style="font-size:12;fill:#ffffff;fill-opacity:1;fill-rule:evenodd;stroke:#000000;stroke-width:2.777046;"/>
	  <path d="M 33.50192 378.4117 C 28.73951 375.5406 15.46838 338.1099 31.11383 333.9587 C 41.84509 339.451 47.15673 370.3101 49.73704 365.6472 C 52.122 362.0742 48.91945 338.7774 54.95566 337.0315 C 65.44364 334.5153 77.2001 361.7593 79.00239 360.8001 C 81.65452 357.2336 75.10959 335.1545 79.13656 330.0258 C 83.02558 324.7872 104.3965 340.2792 104.0991 338.1838 C 108.1988 336.0683 92.1375 301.7878 99.20379 294.9569 C 101.8393 288.4414 120.3017 303.0988 118.6108 299.8817 C 118.654 296.1499 102.6197 278.9791 109.2706 267.5223 C 117.2727 258.1007 136.1446 277.8231 140.3528 289.806 C 143.2129 349.2156 41.25437 375.3687 33.50192 378.4117 z " id="path582" style="font-size:12;fill:#ffffff;fill-opacity:1;fill-rule:evenodd;stroke:#000000;stroke-width:2.777042;"/>
	  <path d="M 332.5156 269.8484 C 308.1063 168.6291 148.6613 26.22139 115.1528 29.45187 C 83.80876 31.80302 11.01671 185.4738 8.89563 241.6085 C 22.18202 254.4591 68.61306 279.407 116.2053 185.4603 C 142.4449 246.5759 128.4534 400.306 23.56726 357.3453 C 25.09155 379.6497 25.60171 426.9343 124.2449 415.7679 C 272.9657 411.1397 325.6957 287.1693 332.5156 269.8484 z " id="path580" style="font-size:12;fill:url(#linearGradient51);fill-opacity:1;fill-rule:evenodd;stroke:#000086;stroke-width:7.907099;"/>
	  <path d="M 110.3962 39.39507 C 77.46674 79.93427 13.19166 211.3126 23.0734 230.3146 C 38.32547 233.612 114.0642 129.8157 199.9927 129.4404 C 209.6872 104.9874 144.7801 56.69941 110.3962 39.39507 z " id="path596" style="font-size:12;fill:#ffffff;fill-opacity:0.5612;fill-rule:evenodd;stroke-width:1;"/>
	  <path d="M 173.082 117.1987 C 173.082 139.1735 156.1586 156.9877 135.2825 156.9877 C 114.4064 156.9877 97.48297 139.1735 97.48297 117.1987 C 97.48297 95.22386 114.4064 77.40973 135.2825 77.40973 C 156.1586 77.40973 173.082 95.22386 173.082 117.1987 z " id="path593" style="font-size:12;fill:#ffffff;fill-opacity:1;fill-rule:evenodd;stroke:#00009e;stroke-width:6.25;"/>
	  <path d="M 133.68 132.3221 C 133.68 140.5578 126.8057 147.2343 118.3259 147.2343 C 109.846 147.2343 102.9717 140.5578 102.9717 132.3221 C 102.9717 124.0865 109.846 117.41 118.3259 117.41 C 126.8057 117.41 133.68 124.0865 133.68 132.3221 z " id="path587" style="font-size:12;fill-opacity:1;fill-rule:evenodd;"/>
	  <path d="M 429.2354 65.54264 C 420.5606 107.0762 389.757 326.38 435.6019 407.2188 C 420.3553 409.8536 398.7161 401.3122 389.3692 392.1993 C 372.6274 375.8757 343.241 277.9696 339.207 269.7858 C 340.3202 254.5884 350.4774 186.119 360.2929 153.0137 C 366.3881 132.7177 411.5364 83.49617 429.2354 65.54264 z " id="path633" style="font-size:12;fill:url(#linearGradient33);fill-opacity:1;fill-rule:evenodd;stroke:#0000a1;stroke-width:6.538972;"/>
	  <path d="M 142.7269 222.8883 C 153.4973 269.7217 137.7261 382.3666 119.7513 411.1578 C 112.5652 417.554 101.6921 414.9658 95.49973 413.7369 C 124.3191 398.9386 144.028 266.0123 142.7269 222.8883 z " id="path583" style="font-size:12;fill:url(#linearGradient586);fill-opacity:1;fill-rule:evenodd;stroke:#0000cd;stroke-width:2.777046;stroke-linejoin:bevel;"/>
	  <path d="M 205.2021 290.1311 C 202.6762 289.6703 202.7013 283.7614 204.9522 280.5986 C 213.9321 276.2647 211.2351 270.7753 212.839 263.4807 C 211.8599 254.8543 209.2079 246.8342 206.0259 238.4571 C 205.1091 230.147 205.5726 225.7722 212.4914 218.9638 C 217.7901 213.2263 220.1684 209.6543 218.9855 202.9212 C 216.3583 196.9837 218.3893 112.1363 216.5223 106.0713 C 216.3396 103.1753 241.6958 128.5158 241.796 130.8162 C 245.4463 140.1896 227.9646 196.1331 230.5245 201.9324 C 231.8292 210.173 229.298 214.7289 222.7737 221.7164 C 217.2014 227.1851 222.1172 252.8525 223.2026 263.6418 C 221.2961 272.9065 218.5445 284.1517 207.2825 289.7553 L 205.2021 290.1311 z " id="path621" style="font-size:12;fill-opacity:1;stroke-width:1;"/>
	  <path d="M 228.6869 367.0726 C 235.6716 367.1345 234.7717 356.0104 240.991 353.8706 C 248.2496 348.2604 253.328 344.3657 258.814 331.7788 C 262.4158 323.5197 251.6428 314.2421 249.373 304.8745 C 246.7296 295.2566 253.5288 287.4376 259.9221 279.1372 C 264.0585 273.0654 249.6586 263.2272 254.394 254.0259 C 257.1857 249.0534 265.8833 237.5563 269.945 224.4752 C 274.0068 211.3944 279.4007 184.7928 282.5463 179.9462 C 288.8598 183.2244 292.9427 196.8492 300.3986 204.8251 C 297.3499 209.5109 296.6862 227.6039 291.2376 239.3417 C 285.7892 251.0792 274.5611 260.44 272.0164 265.3101 C 266.4464 271.974 275.1854 278.7174 270.733 285.2581 C 265.9975 291.3752 261.4041 294.6805 263.0146 301.8343 C 270.2189 312.466 269.2829 321.0145 270.7946 333.1286 C 271.1927 346.7042 262.4418 350.3946 245.7013 358.2327 C 237.9505 361.1494 236.6363 369.2373 228.0963 370.4171 L 228.6869 367.0726 z " id="path622" style="font-size:12;fill-opacity:1;stroke-width:1;"/>
	  <path d="M 215.1629 394.2189 C 210.3875 396.4389 198.3133 389.2038 192.8098 380.3727 C 188.717 371.9214 191.6579 362.4406 196.1825 355.1407 C 199.3239 349.5076 185.061 334.9205 178.9918 328.3087 C 176.9657 322.0865 177.8609 318.3883 180.3124 312.3631 C 182.2451 307.8344 184.6179 300.9691 188.6806 299.1654 C 188.5842 303.6882 191.2346 307.0084 189.1128 311.9536 C 187.2918 316.4151 186.1432 320.9899 187.4337 325.6656 C 192.8459 331.9899 211.2704 350.7361 207.0302 360.5074 C 203.264 366.5147 203.0514 368.6644 201.7028 375.6192 C 206.2835 383.5898 213.8792 390.7307 215.1629 394.2189 z " id="path615" style="font-size:12;fill-opacity:1;stroke-width:1;"/>
	  <path d="M 297.4392 392.0027 C 261.2814 396.71 246.1498 397.3846 265.3045 376.745 C 267.5761 373.5716 289.5458 351.3099 288.8765 370.2993 C 273.3481 386.0478 288.1956 383.9844 314.3499 380.8079 C 333.2055 376.969 325.6169 386.3336 297.4392 392.0027 z " id="path619" style="font-size:12;fill-opacity:1;stroke-width:1;"/>
	  <path d="M 235.4502 33.93576 C 223.1179 29.56894 211.9172 35.71252 195.4428 36.82704 C 182.5257 39.46623 179.8375 47.69256 188.2332 60.76985 C 193.8621 70.39245 223.2781 85.21606 216.4466 70.14453 C 209.4344 59.32582 201.6773 56.31428 200.8653 47.82371 C 214.7961 46.29998 231.1027 35.56816 235.4502 33.93576 z " id="path657" style="font-size:12;fill-opacity:1;stroke-width:1;"/>
	  <path d="M 154.1825 240.5443 C 160.1509 250.7901 193.2938 267.8033 209.9992 278.0025 C 222.7085 277.8604 228.7551 270.843 234.4554 271.3807 C 242.2163 259.7608 212.589 240.293 207.6978 234.5759 C 205.0032 229.9216 164.1298 233.2496 154.1825 240.5443 z " id="path594" style="font-size:12;fill:url(#linearGradient32);fill-opacity:1;fill-rule:evenodd;stroke:#0000ba;stroke-width:6.25;"/>
	  <path d="M 358.1015 232.5863 C 375.3333 201.8029 419.9281 121.6799 411.8167 107.2508 C 399.2971 104.7469 384.4853 124.6476 376.0065 143.0609 C 368.0488 161.6292 359.2722 198.2966 358.1015 232.5863 z " id="path595" style="font-size:12;fill:#ffffff;fill-opacity:0.5612;fill-rule:evenodd;stroke-width:1;"/>
	</g>
	
	<g id="welcomeMan" transform="scale(0.4)">
		<g id="g15884" style="fill:#f5e86e;fill-opacity:1.0000000;stroke:#000000;stroke-width:18.750000;stroke-miterlimit:4.0000000;stroke-opacity:1.0000000;" transform="translate(8.637401,-54.70355)">
		  <path d="M 290.79251,905.52636 C 291.75222,922.80116 289.83281,934.31770 293.67165,957.35077 C 322.46299,994.77951 310.94645,997.65866 319.58385,1017.8126 C 378.12624,1018.7723 436.66862,1019.7320 495.21101,1020.6917 C 493.29159,972.70614 485.61390,959.27019 506.72755,911.28463 C 434.74920,909.36521 362.77086,907.44578 290.79251,905.52636 z " id="path15882" sodipodi:nodetypes="cccccc" style="fill-rule:evenodd;stroke-linecap:butt;stroke-linejoin:miter;"/>
		  <path d="M 403.07872,1017.8126 C 398.28016,986.14212 396.36075,989.02125 426.11179,963.10905" id="path15883" sodipodi:nodetypes="cc" style="fill-rule:evenodd;stroke-linecap:butt;stroke-linejoin:miter;"/>
		</g>
		<path d="M 125.03043,589.78904 C 255.32515,736.37058 240.43550,614.71325 274.28651,859.34032 C 391.00887,864.76922 414.28650,855.59797 531.00886,861.02687 C 531.00886,745.66177 532.20144,839.52057 532.20144,724.15547 C 529.48697,649.50745 587.84814,591.14628 633.99419,520.56997 C 499.62776,440.49301 397.83500,392.98972 263.46857,369.91670 C 202.39292,430.99235 186.10608,528.71339 125.03043,589.78904 z " id="path12150" sodipodi:nodetypes="ccccccc" style="fill:#f5e86e;fill-opacity:1.0000000;fill-rule:evenodd;stroke:#000000;stroke-width:18.750000;stroke-linecap:butt;stroke-linejoin:miter;stroke-miterlimit:4.0000000;stroke-opacity:1.0000000;"/>
		<path d="M 561.94988,489.24453 C 581.14067,513.81947 632.88034,525.60057 647.13133,486.91932 C 651.92989,475.40278 644.51331,463.88624 649.31186,452.36970 C 661.78811,442.77259 670.19265,439.28305 682.66889,429.68594 C 708.29173,420.08883 689.12576,392.16902 665.88807,404.96632 C 642.38927,416.48285 639.24902,417.82010 623.89364,429.33664 C 611.78082,432.33221 637.21130,397.43636 617.58403,392.00764 C 606.43798,388.92475 606.61638,396.91182 587.96312,405.78958 C 569.30985,414.66733 552.18348,424.43578 547.14499,424.91563 C 538.50759,451.78754 570.58728,462.37261 561.94988,489.24453 z " id="path14016" sodipodi:nodetypes="ccccccsscc" style="fill:#ffffd6;fill-opacity:1.0000000;fill-rule:evenodd;stroke:#000000;stroke-width:18.750000;stroke-linecap:butt;stroke-linejoin:miter;stroke-miterlimit:4.0000000;stroke-opacity:1.0000000;"/>
		<g id="g10888" transform="translate(2.879134,-43.18701)">
		  <path d="M 530.95320,408.21957 C 484.88706,670.22074 342.41231,813.68345 114.96074,370.29684" id="path6521" sodipodi:nodetypes="cc" style="fill:#ffffd6;fill-opacity:1.0000000;fill-rule:evenodd;stroke:#000000;stroke-width:18.750000;stroke-linecap:butt;stroke-linejoin:miter;stroke-miterlimit:4.0000000;stroke-opacity:1.0000000;"/>
		  <g id="g6529" transform="matrix(1.000000,0.000000,0.000000,1.027207,8.881784e-15,0.260129)">
			<rect height="187.14369" id="rect6520" style="fill:#cba21f;fill-opacity:1.0000000;fill-rule:evenodd;stroke:none;stroke-width:125.00000;stroke-linecap:butt;stroke-linejoin:miter;stroke-miterlimit:4.0000000;stroke-opacity:1.0000000;" width="155.47322" x="54.703537" y="197.25945"/>
			<g id="g6522">
			  <rect height="262.38248" id="rect4656" style="fill:#cba21f;fill-opacity:1.0000000;fill-rule:evenodd;stroke:none;stroke-width:125.00000;stroke-linecap:butt;stroke-linejoin:miter;stroke-miterlimit:4.0000000;stroke-opacity:1.0000000;" width="480.81534" x="126.68188" y="139.29549"/>
			  <g id="g4030" style="fill:#cba21f;fill-opacity:1.0000000;">
				<path d="M 40.307873,352.73268 C 4.7985566,276.91549 84.454591,68.658146 166.98976,194.38032" id="path3401" sodipodi:nodetypes="cc" style="fill-rule:evenodd;stroke:#000000;stroke-width:18.750000;stroke-linecap:butt;stroke-linejoin:miter;stroke-miterlimit:4.0000000;stroke-opacity:1.0000000;"/>
				<path d="M 122.38340,152.13026 C 215.94113,38.045463 678.60671,-23.617250 626.23181,209.78919" id="path4027" sodipodi:nodetypes="cc" style="fill-rule:evenodd;stroke:#000000;stroke-width:18.750000;stroke-linecap:butt;stroke-linejoin:miter;stroke-miterlimit:4.0000000;stroke-opacity:1.0000000;"/>
				<path d="M 600.31961,365.26240 C 677.09650,401.73143 687.65334,179.07842 597.44048,215.54744" id="path4028" sodipodi:nodetypes="cc" style="fill-rule:evenodd;stroke:#000000;stroke-width:18.750000;stroke-linecap:butt;stroke-linejoin:miter;stroke-miterlimit:4.0000000;stroke-opacity:1.0000000;"/>
				<path d="M 131.02080,379.65807 C 115.66543,436.28103 -0.45963937,386.37605 61.921594,322.07539" id="path4029" sodipodi:nodetypes="cc" style="fill-rule:evenodd;stroke:#000000;stroke-width:18.750000;stroke-linecap:butt;stroke-linejoin:miter;stroke-miterlimit:4.0000000;stroke-opacity:1.0000000;"/>
			  </g>
			</g>
		  </g>
		  <g id="g3402" style="fill-rule:nonzero;" transform="matrix(1.067787,0.000000,0.000000,1.067787,31.28175,-34.74338)">
			<path d="M 365.64999 417.51318 A 96.450981 113.72578 0 1 0 172.74802,417.51318 A 96.450981 113.72578 0 1 0 365.64999 417.51318 z" id="path911" sodipodi:cx="269.19901" sodipodi:cy="417.51318" sodipodi:rx="96.450981" sodipodi:ry="113.72578" sodipodi:type="arc" style="fill:#d4fefe;fill-opacity:1.0000000;stroke:#000000;stroke-width:18.750000;stroke-linecap:butt;stroke-linejoin:miter;stroke-miterlimit:4.0000000;stroke-opacity:1.0000000;" transform="translate(-17.27480,5.758268)"/>
			<path d="M 570.06850 416.07361 A 87.813583 103.64882 0 1 0 394.44133,416.07361 A 87.813583 103.64882 0 1 0 570.06850 416.07361 z" id="path912" sodipodi:cx="482.25491" sodipodi:cy="416.07361" sodipodi:rx="87.813583" sodipodi:ry="103.64882" sodipodi:type="arc" style="fill:#d4fefe;fill-opacity:1.0000000;stroke:#000000;stroke-width:18.750000;stroke-linecap:butt;stroke-linejoin:miter;stroke-miterlimit:4.0000000;stroke-opacity:1.0000000;" transform="translate(-34.54961,25.91221)"/>
			<path d="M 157.98680,407.61898 C 127.66451,409.50039 62.289588,372.28465 58.930854,434.83406" id="path2779" sodipodi:nodetypes="cc" style="fill:none;fill-opacity:0.75000000;stroke:#000000;stroke-width:18.750000;stroke-linecap:butt;stroke-linejoin:miter;stroke-miterlimit:4.0000000;stroke-opacity:1.0000000;"/>
		  </g>
		  <path d="M 428.99094,577.30511 C 413.63555,619.53241 404.03844,621.45183 374.28739,617.61299" id="path7159" sodipodi:nodetypes="cc" style="fill:none;fill-opacity:0.75000000;fill-rule:evenodd;stroke:#000000;stroke-width:18.750000;stroke-linecap:butt;stroke-linejoin:miter;stroke-miterlimit:4.0000000;stroke-opacity:1.0000000;"/>
		  <path d="M -60.461811 731.33875 A 44.626575 44.626575 0 1 0 -149.71496,731.33875 A 44.626575 44.626575 0 1 0 -60.461811 731.33875 z" id="path9024" sodipodi:cx="-105.08839" sodipodi:cy="731.33875" sodipodi:rx="44.626575" sodipodi:ry="44.626575" sodipodi:type="arc" style="fill:#ffffd6;fill-opacity:1.0000000;fill-rule:evenodd;stroke:#000000;stroke-width:18.750000;stroke-linecap:butt;stroke-linejoin:miter;stroke-miterlimit:4.0000000;stroke-opacity:1.0000000;" transform="translate(262.0012,-279.2760)"/>
		</g>
		<path d="M 195.61885,497.64949 C 201.37712,545.15520 161.06926,572.50697 130.83835,569.62784 C 103.96643,564.34942 97.248454,520.20271 96.288744,484.69339 C 77.094524,474.13657 88.131200,477.97541 68.936975,467.41859 C 49.262894,451.58335 62.698852,427.11071 80.453510,437.18768 C 99.647735,445.82508 90.050624,442.94595 110.68441,453.02292 C 132.75777,465.01931 131.79806,474.13657 142.35488,484.69339 C 103.48657,419.91288 172.58579,435.74812 182.66275,463.09989 C 196.57857,478.93513 197.53828,481.81426 195.61885,497.64949 z " id="path10907" sodipodi:nodetypes="ccccccccc" style="fill:#ffffd6;fill-opacity:1.0000000;fill-rule:evenodd;stroke:#000000;stroke-width:18.750000;stroke-linecap:butt;stroke-linejoin:miter;stroke-miterlimit:4.0000000;stroke-opacity:1.0000000;"/>
		<path d="M 475.19749,542.96437 C 418.19355,673.25909 414.12184,862.71345 414.12184,862.71345 C 399.19224,631.98322 341.50967,724.83408 310.29323,587.75318" id="path13394" sodipodi:nodetypes="ccc" style="fill:none;fill-opacity:0.75000000;fill-rule:evenodd;stroke:#000000;stroke-width:18.750000;stroke-linecap:butt;stroke-linejoin:miter;stroke-miterlimit:4.0000000;stroke-opacity:1.0000000;"/>
		<path d="M 373.40474,630.50614 L 367.29718,683.43837 L 409.55616,750.10279 L 424.30112,681.40251 L 373.40474,630.50614 z " id="path15259" sodipodi:nodetypes="ccccc" style="fill:#000000;fill-opacity:1.0000000;fill-rule:evenodd;stroke:#000000;stroke-width:18.750000;stroke-linecap:butt;stroke-linejoin:miter;stroke-miterlimit:4.0000000;stroke-opacity:1.0000000;"/>
		<path d="M 288.48365,954.88637 C 339.78137,925.20699 382.28927,971.73366 415.99512,958.18409 C 457.60095,941.45878 511.99513,942.79477 543.50658,961.48180 C 565.49132,961.48179 563.29284,974.67260 563.29284,994.45880 C 562.56002,1014.2451 557.43025,1023.0390 536.91116,1023.0390 C 454.10199,1021.5734 369.09435,1024.5047 286.28518,1023.0390 C 261.36914,1023.7719 249.64395,1009.1154 251.10960,992.26040 C 265.76608,971.00852 267.23174,958.55049 288.48365,954.88637 z " id="path17130" sodipodi:nodetypes="cscccccc" style="fill:#000000;fill-opacity:1.0000000;fill-rule:evenodd;stroke:#000000;stroke-width:14.317285;stroke-linecap:butt;stroke-linejoin:miter;stroke-miterlimit:4.0000000;stroke-opacity:1.0000000;"/>
   </g>
	
    
  </defs>
  
  <g id="start">
		
        <rect x="0" y="0" width="800" height="600"
              style="stroke: none; fill: orange"/>
        <use id="hello" xlink:href="#welcomeMan" x="50" y="50" /> 
        <!-- normal mode -->
        <g id="normalMode" onclick="top.load(evt)" transform="translate(150,500)">
			<rect x="0" y="0" width="150" height="40"
				  style="fill:skyblue;stroke:red;stroke-width:2" />
			<text x="75" y="28"
				  style="fill:red;font-size:25px;text-anchor:middle"> Normal Mode</text>
	  	</g>
	  	
	  	<!-- zoom mode -->
        <g id="zoomMode" onclick="top.loadZoomMode(evt)" transform="translate(450,500)">
			<rect x="0" y="0" width="150" height="40"
				  style="fill:skyblue;stroke:red;stroke-width:2" />
			<text x="75" y="28"
				  style="fill:red;font-size:25px;text-anchor:middle"> Zoom Mode</text>
	  	</g>
	  	<svg xmlns="http://www.w3.org/2000/svg" version="1.1">
 		 <text  stroke="blue" stroke-width="4" fill="none" style="font-weight: bold;font-size: 50px" transform="translate(300,50)rotate(25 20,40)">Candy Hunter</text>
	    </svg>
	    <text x="340" y="200" style="fill:brown;font-size: 20px; text-anchor: middle;">
            <tspan x="540">You are a candy hunter.</tspan>            
            <tspan x="540" dy="30" style="fill:blue">You need to collect as many candy as you can.</tspan>
            <tspan x="540" dy="30">Press 'w', 'a', 'd' to jump, to left and to right</tspan>
            <tspan x="540" dy="30" style="fill:blue">Press Space to shoot.</tspan>
            <tspan x="540" dy="30">Press 'c' to enter Cheat Mode.</tspan>
        </text>
        <text x="640" y="430" style="fill:green;font-size: 25px; text-anchor: middle;">
            <tspan x="640">2846</tspan>
            <tspan x="640" dy="30">HUANG Richeng</tspan>
        </text>
  </g>
  <g style="clip-path: url(#effect_clip)">
	  <rect width="100%" height="100%" style="fill:url(#background_pattern);stroke:orange;stroke-width:4" />

	  <rect x="20" y="20" width="600" height="560" style="fill:black;stroke:red;stroke-width:5" />
	<!--
	 <xhtml:audio id="gameStart" src="background2.mp3" loop = "10" begin="indefinite"/>
    <xhtml:audio id="shoot" src="shoot.wav" begin="indefinite"/>
    <xhtml:audio id="jump" src="jump.wav" begin="indefinite"/>
    <xhtml:audio id="hurt" src="hurt.wav" begin="indefinite"/>
    <xhtml:audio id="levelUp" src="levelUp.wav" begin="indefinite"/>
    <xhtml:audio id="monsterDie" src="monster.wav" begin="indefinite"/>
    <xhtml:audio id="gameOver" src="gameOver.wav" begin="indefinite"/>
    <xhtml:audio id="pickUpCandy" src="gameOver.wav" begin="indefinite"/>
    <xhtml:audio id="monsterMoan" src="moan.wav" begin="indefinite"/>
	  -->
	
	  <!-- Add your button here -->
	  <g onclick="top.increaseZoom()" transform="translate(640,20)">
		<rect x="0" y="0" width="140" height="40"
			  style="fill:white;stroke:red;stroke-width:2" />
		<text x="70" y="28"
			  style="fill:red;font-size:25px;text-anchor:middle">Zoom</text>
	  </g>
  
	  <!-- score -->
	  <g transform="translate(640, 120)">
		  <text x="70" y="0"
		   style="fill:orange;font-size:25px;font-weight:bold;text-anchor:middle">
			Score:
		  </text>
		  <rect x="0" y="10" width="140" height="35" style="fill:white" />
		  <text id="score" x="70" y="36"
		   style="fill:blue;font-size:25px;text-anchor:middle">0</text>
	  </g>
  
	  <!-- time left -->
	  <g transform="translate(640, 220)">
		  <text x="70" y="0"
		   style="fill:orange;font-size:25px;font-weight:bold;text-anchor:middle">
			Time:
		  </text>
		  <rect x="0" y="10" width="140" height="35" style="fill:white" />
		  <text id="timeLeft" x="70" y="36"
		   style="fill:blue;font-size:25px;text-anchor:middle">100</text>
	  </g>
	  
	  <!-- current level -->
	  <g transform="translate(640, 320)">
		  <text x="70" y="0"
		   style="fill:orange;font-size:25px;font-weight:bold;text-anchor:middle">
			Level:
		  </text>
		  <rect x="0" y="10" width="140" height="35" style="fill:white" />
		  <text id="level" x="70" y="36"
		   style="fill:blue;font-size:25px;text-anchor:middle">1</text>
	  </g>
	  
	  <!-- bullets left -->
	  <g transform="translate(640, 420)">
		  <text x="70" y="0"
		   style="fill:orange;font-size:25px;font-weight:bold;text-anchor:middle">
			Bullet:
		  </text>
		  <rect x="0" y="10" width="140" height="35" style="fill:white" />
		  <text id="bulletLeft" x="70" y="36"
		   style="fill:blue;font-size:25px;text-anchor:middle">8</text>
	  </g>
	  
	  <!-- bullets left -->
	  <g transform="translate(640, 520)">
		  <text x="70" y="0"
		   style="fill:orange;font-size:25px;font-weight:bold;text-anchor:middle">
			Cheat Mode
		  </text>
		  <rect x="0" y="10" width="140" height="35" style="fill:white" />
		  <text id="cheatMode" x="70" y="36"
		   style="fill:blue;font-size:25px;text-anchor:middle">OFF</text>
	  </g>

	  <g style="clip-path:url(#gameareaclip)">
		<g transform="translate(20,20)">
		  <g id="gamearea" transform="translate(0,0)" width="600" height="560" >
			<rect x="0" y="0" width="600" height="560" style="fill:url(#backgroundPattern)" />

			<g id="platforms">
				<!-- left up -->
				<rect x="0" y="60" width="60" height="20" style="fill:url(#platformPattern)"/>
				<rect x="40" y="80" width="20" height="20" style="fill:url(#platformPattern)"/>
				<rect x="40" y="100" width="80" height="20" style="fill:url(#platformPattern)"/>
				<rect x="180" y="100" width="100" height="20" style="fill:url(#platformPattern)"/>
				<rect x="340" y="100" width="160" height="20" style="fill:url(#platformPattern)"/>
				<rect x="60" y="120" width="20" height="20" style="fill:url(#platformPattern)"/>
				<rect x="220" y="120" width="40" height="40" style="fill:url(#platformPattern)"/>
				<rect x="200" y="160" width="80" height="20" style="fill:url(#platformPattern)"/>

				<!-- right up -->
				<rect x="560" y="140" width="40" height="20" style="fill:url(#platformPattern)"/>
				<rect x="540" y="160" width="60" height="20" style="fill:url(#platformPattern)"/>
				<rect x="520" y="180" width="80" height="20" style="fill:url(#platformPattern)"/>

				<!-- left second up -->
				<rect x="0" y="180" width="20" height="40" style="fill:url(#platformPattern)"/>
				<rect x="0" y="220" width="160" height="20" style="fill:url(#platformPattern)"/>
				<rect x="80" y="200" width="40" height="20" style="fill:url(#platformPattern)"/>
				<rect x="100" y="180" width="20" height="20" style="fill:url(#platformPattern)"/>

				<!-- middle right second -->
				<rect x="380" y="180" width="80" height="20" style="fill:url(#platformPattern)"/>
				<rect x="360" y="200" width="40" height="20" style="fill:url(#platformPattern)"/>
				<rect x="320" y="220" width="80" height="20" style="fill:url(#platformPattern)"/>
				<rect x="340" y="240" width="160" height="20" style="fill:url(#platformPattern)"/>

				<!-- middle second -->
				<rect x="240" y="240" width="20" height="20" style="fill:url(#platformPattern)"/>
				<rect x="220" y="260" width="60" height="20" style="fill:url(#platformPattern)"/>
				<rect x="200" y="280" width="100" height="20" style="fill:url(#platformPattern)"/>
				<rect x="180" y="300" width="40" height="20" style="fill:url(#platformPattern)"/>
				<rect x="280" y="300" width="20" height="40" style="fill:url(#platformPattern)"/>
				<rect x="300" y="320" width="20" height="20" style="fill:url(#platformPattern)"/>

				<!-- middle right third -->
				<rect x="380" y="320" width="20" height="20" style="fill:url(#platformPattern)"/>
				<rect x="380" y="340" width="60" height="20" style="fill:url(#platformPattern)"/>
				<rect x="360" y="360" width="100" height="20" style="fill:url(#platformPattern)"/>
				<rect x="360" y="380" width="20" height="20" style="fill:url(#platformPattern)"/>
				<rect x="340" y="400" width="40" height="20" style="fill:url(#platformPattern)"/>

				<!-- right second up -->
				<rect x="560" y="280" width="40" height="20" style="fill:url(#platformPattern)"/>
				<rect x="500" y="300" width="100" height="20" style="fill:url(#platformPattern)"/>

				<!-- left third up -->
				<rect x="0" y="320" width="40" height="20" style="fill:url(#platformPattern)"/>
				<rect x="0" y="340" width="60" height="20" style="fill:url(#platformPattern)"/>
				<rect x="0" y="360" width="120" height="20" style="fill:url(#platformPattern)"/>
				<rect x="0" y="380" width="100" height="20" style="fill:url(#platformPattern)"/>

				<!-- middle third  -->
				<!--
				<rect x="220" y="380" width="20" height="20" style="fill:url(#platformPattern)"/>
				<rect x="180" y="400" width="80" height="20" style="fill:url(#platformPattern)"/>
				<rect x="160" y="420" width="140" height="20" style="fill:url(#platformPattern)"/>
				<rect x="160" y="440" width="100" height="20" style="fill:url(#platformPattern)"/>
				-->
				<rect id="movingPlatform1" direction="right" x="140" y="460" width="60" height="20" style="fill:url(#platformPattern)"/>

				<!-- middle right third -->
				<rect x="440" y="440" width="20" height="20" style="fill:url(#platformPattern)"/>
				<rect x="400" y="460" width="60" height="20" style="fill:url(#platformPattern)"/>
				<rect x="380" y="480" width="60" height="20" style="fill:url(#platformPattern)"/>

				<!-- right third 
				<rect x="580" y="380" width="20" height="20" style="fill:url(#platformPattern)"/>
				<rect x="560" y="400" width="40" height="20" style="fill:url(#platformPattern)"/>
				<rect x="540" y="420" width="60" height="20" style="fill:url(#platformPattern)"/>
				<rect x="500" y="440" width="60" height="20" style="fill:url(#platformPattern)"/>
				-->
				
				<!-- right moving platform -->
				<rect id="movingPlatform2" direction="down" x="540" y="380" width="60" height="20" style="fill:url(#platformPattern)"/>
				
				<!-- buttom -->
				<rect x="0" y="480" width="40" height="20" style="fill:url(#platformPattern)"/>
				<rect x="0" y="500" width="60" height="20" style="fill:url(#platformPattern)"/>
				<rect x="0" y="520" width="80" height="20" style="fill:url(#platformPattern)"/>
				<rect x="0" y="540" width="600" height="20" style="fill:url(#platformPattern)"/>
				<rect x="140" y="520" width="20" height="20" style="fill:url(#platformPattern)"/>
				<rect x="240" y="520" width="80" height="20" style="fill:url(#platformPattern)"/>
				<rect x="500" y="520" width="20" height="20" style="fill:url(#platformPattern)"/>
				<rect x="260" y="500" width="20" height="20" style="fill:url(#platformPattern)"/>

			</g>
			<use id="star" xlink:href="#starDef" x="400" y="200"/>
			<g id="monsters" />
			<g id="candys" />
			<g id="bullets" />

			<g id="player" style="opacity:1">
				<text id="playerName" x="12" y="0"
		   		style="fill:blue;font-size:13px;font-weight:bold;text-anchor:middle">
					Anonymous
				</text>
				<use id="bluefish" xlink:href="#bluefishDef" />
			</g>
			<!-- 
			<g id="player">
			  <circle cx="20" cy="20" r="20" style="fill:url(#player_color);stroke:black;stroke-width:2"/>
			  <ellipse cx="15" cy="15" rx="3" ry="6" style="fill:black"/>
			  <ellipse cx="25" cy="15" rx="3" ry="6" style="fill:black"/>
			  <path d="M10,25 l20,0 q0,8 -10,8 t-10,-8" style="fill:orange;stroke:black;stroke-black:2"/>
			  </g>
			  -->
		  </g>
		</g>
	  </g>	

      <!-- high score table -->
	  <g id="highscoretable" transform="translate(40,40)" style="visibility:hidden">
		  <rect width="520" height="520"
		   style="fill:white;stroke:red;stroke-width:2"/>
		  <text x="260" y="40"
		   style="fill:red;font-size:30px;font-weight:bold;text-anchor:middle">
			High Score Table
		  </text>
		  <text id="highscoretext" y="45"
		   style="font-size: 20px;font-weight:bold"/>
	   	 <g id="startAgainButton" onclick="top.startAgain(evt)" transform="translate(150,480)">
			<rect x="0" y="0" width="150" height="40"
				  style="fill:skyblue;stroke:red;stroke-width:2" />
			<text x="75" y="28"
				  style="fill:red;font-size:25px;text-anchor:middle"> Start Again</text>
	  	 </g>
	</g>
  </g>
</svg>
