<?xml version="1.0"?><svg width="480" height="480" xmlns="http://www.w3.org/2000/svg">
 <title>blue monster</title>

 <metadata id="metadata7">image/svg+xml</metadata>
 <g>
  <title>Layer 1</title>
  <g id="layer1">
   <path d="m243.031006,38.672901c-41.572006,0.996498 -82.832001,20.251198 -112.774002,55.874401c-30.633507,35.41069 -47.552101,87.50769 -43.129601,139.009705c4.1362,56.652985 33.5336,107.126984 73.497597,135.074005c56.796005,40.863983 133.144989,36.345001 185.981995,-12.011017c36,-31.997009 59.654999,-84.195007 59.246002,-139.091995c0.01001,-20.169006 -3.036987,-40.274002 -8.949005,-59.113007c-18.220001,-58.739792 -62.800995,-101.271893 -112.608002,-114.576893c-13.520996,-3.785599 -27.40799,-5.497501 -41.264984,-5.165199zm0.373001,14.019798c12.481995,-0.285801 24.977982,1.232201 37.120987,4.632301l0.041992,0.041l0.041016,0c44.484985,11.883099 85.914001,50.743 102.790009,105.148998l0,0.041c5.475983,17.449997 8.339996,36.237 8.326996,55.013l0,0.041c0.377991,50.792007 -22.093994,99.705002 -54.647003,128.638992l-0.041016,0.041016l-0.041992,0.040985c-48.195984,44.108002 -116.571991,47.994995 -168.125,10.903992l-0.041,-0.040985l-0.041992,0c-36.018997,-25.187988 -63.744003,-72.295013 -67.573006,-124.744003l0,-0.041l0,-0.041c-4.091095,-47.640991 12.087006,-96.653992 39.896996,-128.801994l0.042007,-0.041l0,-0.041c27.460999,-32.6716 64.802002,-49.934002 102.251007,-50.791302z" stroke-width="10.683" stroke-miterlimit="4" fill="#000000" id="path3627"/>
   <path d="m395.041992,220.380005c0.384003,52.066986 -22.141998,101.923004 -55.576996,131.940002c-49.277008,45.552002 -119.90799,49.661987 -172.752991,11.257996c-37.059006,-26.177002 -64.929008,-74.281006 -68.814102,-128.029007c-4.152306,-48.843002 12.0271,-98.700989 40.532089,-131.983994c37.330002,-44.859901 93.07901,-61.859303 143.147003,-47.699402c45.98999,12.408798 87.925995,52.519402 105.042999,108.260406c5.557007,17.882996 8.434998,37.060989 8.421997,56.253998z" stroke-width="10.683" stroke-miterlimit="4" fill="#00007f" id="path3143"/>
   <path d="m234.604004,174.143005c0.571991,22.409988 -20.730011,41.592987 -42.865997,39.807999c-22.173004,-0.434006 -41.388,-21.678009 -38.461014,-43.882004c1.834,-23.104004 26.401001,-40.190002 48.771011,-34.975006c18.264999,3.359009 32.865997,20.331009 32.556,39.049011z" stroke-width="4.79717" stroke-miterlimit="4" stroke="#000000" fill="#ffffff" id="path5083"/>
   <path d="m379.953003,128.968994c0.484985,27.718002 -21.908997,52.562012 -48.834015,57.272003c-28.151978,6.091003 -59.685974,-9.858994 -69.759003,-37.177994c-9.581985,-23.694 -0.115997,-52.635406 20.858002,-66.936005c24.663025,-18.248199 62.516022,-14.541199 82.81601,8.590302c9.462006,10.349701 14.98999,24.203697 14.919006,38.251694z" stroke-width="4.79717" stroke-miterlimit="4" stroke="#000000" fill="#ffffff" id="path5085"/>
   <path d="m166.981003,275.618988c23.912994,55.057007 66.987,80.627014 125.564987,75.686005c67.675995,-14.544006 88.554016,-89.063995 67.863007,-143.692993c-65.326996,0.688004 -151.589996,11.947998 -193.427994,68.006989z" stroke-width="10.097" stroke-miterlimit="4" stroke="#000000" fill-rule="evenodd" fill="#aad4ff" id="path5087"/>
   <path d="m321.368011,366.588013c4.238983,7.009979 8.936981,13.786987 16.546997,16.817993c7.609985,3.029999 13.957001,10.391998 20.143005,3.434998c8.766998,-9.856995 24.248993,-12.052002 36.93399,-6.776001c7.332001,3.049011 9.583984,7.115997 6.535004,14.56601c-4.481018,10.948975 -14.908997,18.384979 -26.671021,18.459991c-3.842987,0.023987 -13.319977,-3.302002 -6.164978,2.493988c9.442993,7.649994 17.269989,19.876007 14.279999,32.907013c-2,8.720001 -13.393005,5.070007 -19.865997,4.473999c-15.803009,-1.455994 -29.446014,-11.261993 -41.337006,-21.333008c-3.932007,11.27002 -13.98999,20.936005 -26.640991,20.845001c-9.129028,-0.06601 -22.172028,1.80899 -26.778015,-4.432007c-7.373993,-9.990997 0.082001,-30.619995 12.364014,-39.903992c5.233978,-3.955994 18.675995,-5.023987 17.985992,-8.549988c-1.397003,-7.132019 -10.744019,-20.161011 -14.938019,-27.307007" stroke-width="4.79717" stroke-miterlimit="4" stroke="#000000" fill-rule="evenodd" fill="#00007f" id="path2802"/>
   <path d="m186.929001,170.164993c-4.300003,31.021011 -27.382004,10.647003 -14.591003,-12.472c6.888,-14.725998 17.748001,-3.375992 14.591003,12.472z" stroke-width="4.79717" stroke-miterlimit="4" fill="#000000" id="path5089"/>
   <path d="m345.860992,124.539001c17.789001,55.097 -47.035004,40.074997 -42.490997,-9.984001c1.996002,-28.517998 32.957001,-21.255898 42.490997,9.984001z" stroke-width="4.79717" stroke-miterlimit="4" fill="#000000" id="path5091"/>
   <path d="m169.487,365.307007c-5.013992,12.441986 -16.591995,38.781982 -33.875,32.959991c-12.417999,-7.791992 -29.598,-5.31601 -41.464401,4.269012c-6.857101,5.537994 -7.985199,10.584991 -2.410301,17.587982c8.196503,10.296021 21.6287,14.985016 34.181702,11.401001c4.103004,-1.17099 13.780006,-7.234985 7.348,0.742004c-7.047997,11.548004 -12.185997,26.60199 -4.929001,39.583008c4.856003,8.687988 15.852005,1.240997 22.561996,-1.411011c16.381012,-6.47699 27.851013,-21.196991 37.371002,-35.652985c7.710999,10.807983 21.447006,17.996002 34.897003,13.957977c9.703995,-2.912994 24.188995,-4.983978 27.141998,-13.071991c4.738007,-12.973999 -9.658997,-32.667999 -25.64299,-38.753998c-6.814011,-2.593994 -21.466003,0.453003 -21.832001,-3.526001c-0.741013,-8.049988 7.084,-22.442993 9.319,-31.378998" stroke-width="4.79717" stroke-miterlimit="4" stroke="#000000" fill-rule="evenodd" fill="#00007f" id="path5133"/>
   <path d="m286.307007,53.258202c-17.52301,11.443497 -30.237,30.638 -35.81601,51.221802c9.437988,-15.191803 22.671997,-29.189903 38.541992,-39.553505c17.289001,-11.290398 34.822998,-16.4007 49.937012,-15.731098c-14.847015,-8.665699 -34.292999,-7.9338 -52.662994,4.062801z" stroke-width="21.5873" stroke-miterlimit="4" fill="#000000" id="path2808"/>
   <path d="m190.815994,103.795998c19.992004,5.166 35.792007,21.156006 44.174011,41.838997c-11.84201,-12.929001 -27.578003,-22.849991 -45.682999,-27.527992c-19.725006,-5.098 -38.974014,-3.140999 -54.962006,4.248001c14.751999,-16.259003 35.511993,-23.975006 56.470993,-18.559006z" stroke-width="21.5873" stroke-miterlimit="4" fill="#000000" id="path2813"/>
   <path d="m140.199997,441.437012c-5.970993,3.869995 -9.106995,21.35498 -4.972,24.209991c4.37001,3.015991 18.89801,-6.196991 29.180008,-14.15799c4.644989,-3.597015 -14.434998,-16.386017 -24.208008,-10.052002z" stroke-width="4.797" stroke-miterlimit="4" stroke="#000000" fill-rule="evenodd" fill="#007fff" id="path2815"/>
   <path d="m123.622002,403.605011c-5.072998,-2.406006 -24.152405,2.078979 -26.519203,5.803986c-2.500801,3.934998 9.625198,9.863007 19.738205,13.522003c4.567993,1.653015 15.084,-15.390015 6.780998,-19.325989z" stroke-width="4.797" stroke-miterlimit="4" stroke="#000000" fill-rule="evenodd" fill="#007fff" id="path3198"/>
   <path d="m243.940994,428.954987c-0.453995,-6.503998 -12.151993,-22.898987 -15.942001,-23.042999c-4.003998,-0.151978 -3.050995,15.502014 -1.306992,27.792023c0.787003,5.550995 17.992004,5.895996 17.248993,-4.749023z" stroke-width="4.797" stroke-miterlimit="4" stroke="#000000" fill-rule="evenodd" fill="#007fff" id="path3200"/>
   <path d="m367.123993,425.666992c5.869995,2.429016 11.328003,17.002014 8.114014,20.080994c-3.395996,3.255005 -17.64502,-2.481995 -27.951996,-7.780975c-4.656006,-2.394012 10.231995,-16.277008 19.837982,-12.300018z" stroke-width="4.797" stroke-miterlimit="4" stroke="#000000" fill-rule="evenodd" fill="#007fff" id="path3202"/>
   <path d="m369.901001,390.98999c3.696991,-3.356995 21.213989,-4.720001 24.233002,-2.251984c3.190002,2.608002 -5.597992,10.779999 -13.270996,16.527008c-3.466003,2.595978 -17.011993,-8.782013 -10.962006,-14.275024z" stroke-width="4.797" stroke-miterlimit="4" stroke="#000000" fill-rule="evenodd" fill="#007fff" id="path3204"/>
   <path d="m273.72699,439.44101c-0.700989,-5.653015 6.822998,-21.662018 10.13501,-22.417999c3.5,-0.798004 5.309998,12.785004 5.855988,23.61499c0.246002,4.891998 -14.842987,8.056 -15.990997,-1.196991z" stroke-width="4.797" stroke-miterlimit="4" stroke="#000000" fill-rule="evenodd" fill="#007fff" id="path3206"/>
   <path d="m272.634003,346.893005c4.471008,-23.235992 11.21701,-33.627991 15.559998,-61.304016c30.260986,25.320007 33.997009,27.800018 50.838013,34.890015c-18.973999,16.740997 -40.940002,27.553009 -66.39801,26.414001z" stroke-width="4.79717" stroke-miterlimit="4" stroke="#000000" fill-rule="evenodd" fill="#ffffff" id="path5131"/>
   <path d="m190.052994,258.368988c22.920013,14.098022 30.367004,35.009003 46.638,48.605011c-2.315994,-1.447998 0.838013,-67.839996 14.555008,-79.268997c-27.464996,5.957001 -41.921005,15.604004 -61.193008,30.663986z" stroke-width="4.797" stroke-miterlimit="4" stroke="#000000" fill-rule="evenodd" fill="#ffffff" id="path5093"/>
   <path d="m272.791992,51.4977c-3.186005,-13.1465 -12.162994,-35.2561 -28.437988,-49.09911c7.705002,44.729309 -15.149002,70.277412 -12.237,86.189011" stroke-width="4.79717" stroke-miterlimit="4" stroke="#000000" fill-rule="evenodd" fill="#00007f" id="path3633"/>
   <path d="m160.533997,80.563301c-2.858994,-13.221603 -8.33699,-100.196001 4.212006,-56.575802c12.548996,43.620197 44.252991,56.675304 48.563004,72.266705" stroke-width="4.79717" stroke-miterlimit="4" stroke="#000000" fill-rule="evenodd" fill="#00007f" id="path3635"/>
   <path d="m344.856995,214.757004c-11.350006,24.388992 -6.031006,45.939011 -12.109009,66.245987c1.134003,-2.483978 -38.112976,-56.141998 -55.860992,-58.122986c26.201019,-10.159012 43.584015,-10.072998 67.970001,-8.123001z" stroke-width="4.797" stroke-miterlimit="4" stroke="#000000" fill-rule="evenodd" fill="#ffffff" id="path3637"/>
   <path d="m2.39858,306.125c11.24422,-7.631989 24.013119,-19.446014 23.149319,-51.498001c7.347799,27.397995 23.618101,44.664993 33.974199,55.168015c-17.947899,-4.51001 -19.540497,3.238983 -23.3055,9.359985c-20.217098,34.282013 40.650398,28.649994 100.919403,23.312012l24.940994,23.541992c-111.170795,3.048004 -152.839756,-14.13501 -137.176296,-48.007996c-1.9006,-14.218994 -13.8256,-10.071014 -22.50212,-11.876007z" stroke-width="4.79717" stroke-miterlimit="8.3" stroke="#000000" fill-rule="evenodd" fill="#00007f" id="path3639"/>
  </g>
 </g>
</svg>