<?xml version="1.0" encoding="UTF-8" standalone="no"?>
<!-- Created with Inkscape (http://www.inkscape.org/) -->
<svg
   xmlns:dc="http://purl.org/dc/elements/1.1/"
   xmlns:cc="http://web.resource.org/cc/"
   xmlns:rdf="http://www.w3.org/1999/02/22-rdf-syntax-ns#"
   xmlns:svg="http://www.w3.org/2000/svg"
   xmlns="http://www.w3.org/2000/svg"
   xmlns:sodipodi="http://sodipodi.sourceforge.net/DTD/sodipodi-0.dtd"
   xmlns:inkscape="http://www.inkscape.org/namespaces/inkscape"
   width="119.53313"
   height="149.82057"
   id="svg3373"
   sodipodi:version="0.32"
   inkscape:version="0.45.1"
   version="1.0"
   sodipodi:docbase="C:\Documents and Settings\Louis\Bureau"
   sodipodi:docname="monster.svg"
   inkscape:output_extension="org.inkscape.output.svg.inkscape">

  <g    id="bluefish"   transform="translate(-243.09059,-186.02332)">
    <g
       id="g3362"
       transform="translate(151.36055,89.545853)">
      <path
         id="path5133"
         d="M 139.29123,205.27168 C 137.92784,208.4719 137.65987,212.29217 134.84273,214.69926 C 132.67305,216.19876 130.53088,220.48561 127.74358,218.16333 C 123.15349,215.85358 117.16222,215.94887 113.30448,219.65064 C 110.64218,221.21832 110.16359,223.63991 112.46514,225.7789 C 114.95921,229.66733 120.04982,231.23208 124.36835,229.75139 C 125.84985,229.57509 129.16696,227.23049 126.92719,230.01009 C 124.47286,234.03374 122.44893,239.40591 125.21049,243.80188 C 126.66717,246.95607 130.62907,243.94729 133.06736,243.3101 C 138.66996,240.76643 142.76589,235.92466 146.08104,230.88775 C 148.76643,234.65351 153.58046,237.26176 158.23325,235.75107 C 161.6433,234.83965 164.6544,232.93861 167.68496,231.19638 C 167.3327,225.60004 164.48419,219.43953 158.75537,217.69342 C 156.54531,216.41493 152.3169,217.54239 151.15276,216.46479 C 151.93121,213.351 152.70965,210.23722 153.4881,207.12344"
         style="fill:#55d400;fill-rule:evenodd;stroke:#000000;stroke-width:2.16039205;stroke-linecap:butt;stroke-linejoin:miter;stroke-miterlimit:4;stroke-dasharray:none;stroke-opacity:1" />
      <path
         id="path3143"
         d="M 202.18368,155.86903 C 202.32476,172.13152 194.04264,187.70331 181.74945,197.07893 C 163.63158,211.30668 137.66258,212.59031 118.23285,200.5951 C 104.60712,192.41906 94.35992,177.39451 92.931507,160.60665 C 91.404826,145.35128 97.353616,129.77863 107.83416,119.38315 C 121.55939,105.37157 142.05682,100.06203 160.46571,104.48471 C 177.3748,108.36047 192.79378,120.88849 199.08724,138.29853 C 201.13029,143.88423 202.18862,149.87418 202.18368,155.86903 z "
         style="fill:#55d400;fill-opacity:1;stroke:#000000;stroke-width:1.92879772;stroke-miterlimit:4;stroke-dasharray:none;stroke-opacity:1" />
      <path
         id="path5083"
         d="M 144.06253,133.64786 C 144.26165,141.45603 136.84386,148.14009 129.13545,147.518 C 121.41399,147.36706 114.72278,139.96509 115.74214,132.22852 C 116.38069,124.17813 124.93573,118.22499 132.72567,120.04195 C 139.08594,121.21233 144.17068,127.12597 144.06253,133.64786 z "
         style="fill:#ffffff;fill-opacity:1;stroke:#000000;stroke-width:2.16039205;stroke-miterlimit:4;stroke-dasharray:none;stroke-opacity:1" />
      <path
         id="path5085"
         d="M 194.67743,117.90786 C 194.84657,127.56554 187.04829,136.22208 177.67214,137.8632 C 167.86857,139.98556 156.88767,134.42794 153.37972,124.90922 C 150.04305,116.65371 153.3394,106.56956 160.64343,101.58683 C 169.23179,95.228633 182.41322,96.520254 189.48247,104.57995 C 192.7774,108.18611 194.70218,113.01309 194.67743,117.90786 z "
         style="fill:#ffffff;fill-opacity:1;stroke:#000000;stroke-width:2.16039205;stroke-miterlimit:4;stroke-dasharray:none;stroke-opacity:1" />
      <path
         id="path5087"
         d="M 102.45078,158.75259 C 109.93994,175.43313 123.74856,189.7883 141.34294,195.59352 C 157.38403,201.13134 176.26297,198.82649 189.75664,188.25271 C 202.06565,178.88832 208.7453,163.65894 209.94415,148.49016 C 211.46113,143.97148 205.35379,145.83202 202.81685,145.15938 C 181.99905,144.23665 161.1937,146.76646 140.69587,150.19845 C 127.82339,152.4424 115.02511,155.18563 102.45078,158.75259 z "
         style="fill:#ffffff;fill-rule:evenodd;stroke:#000000;stroke-width:2.16039205;stroke-linecap:butt;stroke-linejoin:miter;stroke-miterlimit:4;stroke-dasharray:none;stroke-opacity:1" />
      <path
         id="path5131"
         d="M 163.73951,197.76243 C 162.8647,189.25866 161.77164,180.41659 164.14544,172.05615 C 165.01728,168.68887 168.05998,165.44324 171.82796,166.24579 C 177.87101,167.4675 182.50057,172.03345 186.79,176.16124 C 189.45009,178.98011 192.26611,181.87355 194.25975,185.14916 C 185.88773,192.68376 174.97259,197.12671 163.73951,197.76243 z "
         style="fill:#ffff00;fill-rule:evenodd;stroke:#000000;stroke-width:2.16039205;stroke-linecap:butt;stroke-linejoin:miter;stroke-miterlimit:4;stroke-dasharray:none;stroke-opacity:1" />
      <path
         id="path5089"
         d="M 134.8037,128.40121 C 134.88606,132.64805 128.61165,130.37839 130.85204,127.02106 C 131.97651,124.90781 134.99206,126.21237 134.8037,128.40121 z "
         style="fill:#ffffff;fill-opacity:1;stroke:#000000;stroke-width:2.16039205;stroke-miterlimit:4;stroke-dasharray:none;stroke-opacity:1" />
      <path
         id="path5091"
         d="M 181.71508,107.7849 C 181.72149,112.0133 174.82404,109.92275 177.1989,106.40475 C 178.4837,104.39132 181.77487,105.39607 181.71508,107.7849 z "
         style="fill:#ffffff;fill-opacity:1;stroke:#000000;stroke-width:2.16039205;stroke-miterlimit:4;stroke-dasharray:none;stroke-opacity:1" />
      <path
         id="path5093"
         d="M 130.58157,152.55985 C 131.94489,157.28954 133.1739,162.44053 136.73309,166.04659 C 139.79997,169.01207 143.79021,165.67793 145.51543,162.90407 C 148.72637,158.59268 150.47804,153.42715 153.07429,148.78922 L 153.18509,148.83735 L 153.2227,149.15596"
         style="fill:#ffff00;fill-rule:evenodd;stroke:#000000;stroke-width:2.16039205;stroke-linecap:butt;stroke-linejoin:miter;stroke-miterlimit:4;stroke-dasharray:none;stroke-opacity:1" />
    </g>
  </g>
</svg>
